<?xml version="1.0" standalone="no"?>
<!DOCTYPE svg PUBLIC "-//W3C//DTD SVG 20010904//EN"
 "http://www.w3.org/TR/2001/REC-SVG-20010904/DTD/svg10.dtd">
<svg version="1.0" xmlns="http://www.w3.org/2000/svg"
 width="362.000000pt" height="362.000000pt" viewBox="0 0 362.000000 362.000000"
 preserveAspectRatio="xMidYMid meet">
<metadata>
Created by potrace 1.14, written by Peter Selinger 2001-2017
</metadata>
<g transform="translate(0.000000,362.000000) scale(0.100000,-0.100000)"
fill="#000000" stroke="none">
<path d="M1112 3612 c3 -14 -14 -42 -22 -37 -5 3 -12 0 -16 -6 -4 -8 -3 -9 4
-5 18 11 14 -3 -7 -30 -10 -13 -21 -20 -25 -16 -13 12 -25 -21 -14 -41 7 -14
7 -18 -1 -12 -8 4 -10 -2 -7 -19 3 -15 1 -24 -5 -21 -5 4 -6 11 -3 17 4 7 2 8
-4 4 -6 -4 -8 -14 -5 -24 6 -15 5 -16 -13 -2 -18 14 -18 13 1 -9 11 -13 19
-32 17 -43 -3 -14 0 -18 10 -13 10 6 11 5 1 -6 -16 -16 -17 -33 -1 -23 7 5 8
3 4 -5 -5 -7 -14 -10 -20 -8 -7 3 -13 -1 -13 -9 0 -10 7 -12 21 -8 15 4 17 2
8 -4 -14 -9 -23 -67 -14 -89 2 -7 9 -10 16 -6 6 4 6 0 -2 -9 -10 -13 -10 -17
0 -22 7 -3 2 -3 -11 0 -21 6 -22 4 -10 -9 8 -8 19 -12 24 -9 6 3 4 -1 -2 -9
-9 -11 -9 -19 -2 -26 13 -13 4 -33 -14 -32 -9 0 -9 2 1 6 6 2 12 9 12 14 0 6
-4 8 -9 4 -6 -3 -8 4 -6 15 2 11 0 18 -4 16 -10 -6 -8 -46 2 -64 5 -7 13 -10
18 -7 5 4 9 1 9 -4 0 -14 -6 -14 -33 0 -20 9 -21 9 -4 -4 12 -10 16 -24 13
-41 -3 -15 -1 -24 4 -21 5 3 12 0 16 -6 4 -8 3 -9 -5 -5 -9 6 -11 -4 -8 -38 3
-25 1 -43 -4 -40 -5 3 -9 -2 -9 -11 0 -10 5 -13 12 -9 6 4 8 3 4 -4 -3 -5 0
-13 6 -16 7 -3 3 -3 -9 -1 -12 3 -24 1 -28 -4 -3 -6 0 -8 8 -5 8 3 18 1 21 -4
3 -6 -1 -12 -9 -16 -8 -3 -12 -12 -9 -21 3 -8 11 -12 16 -9 6 4 5 10 -3 15 -8
5 -9 9 -3 9 18 0 24 -12 13 -26 -6 -8 -8 -22 -4 -31 15 -34 13 -61 -4 -56 -12
3 -11 0 3 -11 23 -18 6 -21 -27 -5 -19 8 -20 8 -7 -3 8 -7 16 -19 18 -27 3
-12 1 -12 -14 0 -16 13 -16 12 -4 -11 12 -22 11 -24 -2 -13 -8 7 -18 10 -22 6
-4 -4 -11 -1 -16 7 -7 12 -12 12 -22 2 -17 -17 -28 -15 -29 6 0 12 -3 10 -10
-8 -10 -23 -11 -24 -23 -7 -14 17 -32 24 -21 8 3 -6 -4 -9 -15 -8 -14 1 -19 6
-15 17 3 8 -4 4 -15 -10 -11 -14 -18 -18 -15 -9 4 11 -1 15 -20 15 -14 0 -25
-6 -25 -13 0 -7 -5 -13 -11 -13 -5 0 -8 4 -4 9 3 5 1 12 -5 16 -5 3 -10 -1
-10 -10 0 -9 -5 -13 -10 -10 -6 4 -8 11 -4 16 3 6 -3 5 -15 -3 -14 -8 -19 -20
-16 -33 3 -11 2 -14 -1 -7 -7 15 -31 16 -40 0 -5 -7 -2 -9 8 -6 9 4 15 0 15
-8 0 -12 -5 -11 -25 2 -15 10 -21 11 -17 3 6 -9 3 -10 -11 -5 -10 4 -15 4 -12
0 4 -4 3 -16 -3 -27 -8 -15 -8 -18 1 -12 9 6 9 2 1 -14 -7 -11 -21 -21 -32
-21 -13 0 -18 4 -13 12 4 7 3 8 -4 4 -15 -9 -17 -1136 -2 -1136 6 0 8 -5 4
-12 -5 -7 -3 -8 7 -3 21 14 46 13 46 -1 0 -7 -4 -11 -8 -8 -4 2 -10 1 -13 -4
-2 -4 4 -9 15 -9 11 -1 19 5 20 15 0 11 2 12 6 4 3 -7 0 -19 -6 -26 -8 -9 -7
-13 4 -13 8 0 15 3 15 7 0 3 10 6 21 7 20 2 20 1 4 -11 -10 -7 -15 -19 -12
-27 4 -10 6 -9 6 4 1 9 6 17 12 17 6 0 8 -9 4 -22 -5 -18 -4 -20 4 -8 10 13
11 13 11 0 0 -13 1 -13 10 0 5 8 12 11 16 7 4 -3 1 -15 -7 -24 -12 -16 -12
-17 1 -6 12 9 55 11 55 3 0 -1 8 -3 17 -5 22 -4 33 11 17 21 -7 4 -9 3 -6 -3
3 -5 0 -10 -8 -10 -10 0 -12 4 -5 12 5 7 6 16 2 21 -4 5 3 0 15 -10 20 -16 25
-17 40 -5 11 9 14 10 9 2 -4 -8 -1 -13 9 -13 12 0 15 6 9 23 -8 26 -2 22 16
-12 6 -13 7 -21 2 -17 -6 3 -13 2 -16 -3 -4 -5 2 -8 11 -7 10 2 18 8 18 14 0
6 4 14 9 19 5 5 6 3 2 -5 -6 -9 -1 -11 18 -8 14 3 31 8 37 12 8 5 9 3 4 -6 -6
-9 -1 -10 16 -5 18 5 20 4 9 -4 -8 -5 -12 -13 -8 -16 3 -3 13 1 22 10 15 15
16 15 17 -7 0 -22 1 -22 9 -3 6 13 9 15 9 5 1 -13 2 -13 11 0 6 10 10 11 10 3
0 -7 5 -13 11 -13 5 0 7 5 4 11 -9 13 27 8 37 -6 4 -6 8 -1 8 10 1 18 2 18 14
-4 8 -14 16 -19 20 -13 3 6 0 13 -6 16 -7 3 -4 4 7 3 11 -2 19 -9 17 -16 -1
-7 2 -10 8 -6 6 3 8 11 5 16 -11 16 7 10 21 -9 13 -16 14 -16 7 3 -6 18 -5 19
12 5 11 -9 16 -10 11 -2 -4 6 -2 12 3 12 6 0 11 -4 11 -10 0 -5 5 -10 11 -10
5 0 7 5 4 10 -3 6 -2 10 4 10 5 0 11 -6 14 -12 3 -10 9 -10 26 0 25 15 31 15
31 1 0 -5 -4 -8 -9 -5 -5 3 -14 -1 -20 -8 -9 -10 -9 -16 -1 -21 6 -4 9 -1 8 6
-4 16 22 19 40 6 17 -14 29 1 12 16 -10 10 -11 9 -5 -2 6 -10 4 -12 -4 -7 -15
10 -7 19 20 23 12 2 18 -1 14 -7 -3 -5 -1 -10 4 -10 6 0 11 4 11 9 0 5 8 12
19 16 12 4 17 13 15 30 -1 14 2 23 6 20 5 -3 12 -1 15 5 5 8 12 7 23 -2 14
-11 15 -10 8 7 -4 11 -4 16 0 12 4 -4 13 1 21 11 13 15 13 15 4 -4 -8 -17 -7
-25 4 -34 12 -10 13 -8 10 11 l-4 22 23 -22 c18 -17 25 -19 29 -9 4 10 6 10 6
-1 1 -11 5 -10 16 5 14 19 14 19 15 -1 0 -17 2 -17 10 -5 8 12 10 10 11 -10
l1 -25 8 25 c6 18 8 20 9 7 1 -10 6 -15 11 -12 6 3 10 3 11 -2 0 -4 2 -19 5
-32 4 -21 2 -22 -12 -10 -16 13 -16 12 -3 -9 8 -12 15 -18 17 -12 2 5 11 10
20 9 11 0 12 -2 5 -6 -16 -6 -17 -29 -1 -39 6 -4 8 -3 4 4 -3 6 -1 14 5 18 7
4 9 3 5 -4 -3 -6 -2 -14 4 -17 8 -5 8 -11 0 -20 -8 -10 -8 -15 1 -21 9 -5 7
-11 -6 -21 -11 -7 -13 -13 -7 -13 7 0 12 -5 12 -11 0 -5 -4 -8 -9 -4 -5 3 -12
1 -15 -4 -4 -6 7 -8 26 -6 18 3 28 1 22 -3 -6 -4 -14 -20 -18 -37 -7 -29 -7
-29 8 -10 9 11 16 16 15 10 -4 -31 2 -44 19 -38 14 5 13 3 -3 -11 -20 -17 -20
-17 5 -12 14 3 19 3 13 0 -10 -4 -10 -11 -2 -27 10 -21 10 -21 -5 -3 -9 11
-16 15 -16 8 0 -6 9 -20 21 -31 20 -18 20 -20 2 -31 -16 -10 -16 -10 4 -5 17
5 22 3 17 -8 -3 -8 0 -18 7 -23 7 -4 10 -3 5 4 -3 6 -1 14 5 18 8 4 9 3 5 -4
-4 -7 -1 -12 6 -12 10 0 10 -2 -1 -9 -8 -5 -11 -16 -8 -26 4 -9 11 -14 16 -11
11 7 9 -13 -2 -31 -10 -17 5 -17 23 0 12 10 12 9 1 -5 -13 -18 -6 -24 22 -19
5 1 6 -3 2 -9 -4 -7 -12 -7 -26 0 -13 7 -19 7 -19 0 0 -5 6 -10 14 -10 8 0 22
-7 31 -16 15 -15 15 -18 0 -34 -11 -12 -13 -20 -5 -25 5 -3 8 -11 5 -16 -4 -5
2 -6 11 -2 14 5 16 3 11 -11 -5 -11 -3 -15 4 -10 7 4 10 1 7 -7 -3 -8 -11 -13
-18 -11 -11 3 -11 0 0 -12 13 -17 25 -22 16 -7 -3 5 1 12 10 15 8 3 12 11 8
17 -4 7 -3 9 4 5 7 -4 7 -14 -3 -33 -12 -23 -12 -29 6 -51 11 -14 17 -34 15
-48 -6 -29 -3 -29 20 -6 17 16 18 16 11 -1 -4 -11 -2 -20 6 -23 9 -3 13 -21
11 -54 -1 -36 2 -50 11 -50 7 0 15 -5 17 -10 2 -6 13 -12 25 -13 12 0 19 -5
17 -9 -5 -8 11 -12 29 -9 5 1 6 -3 2 -9 -3 -6 -11 -8 -16 -5 -5 3 -6 -1 -3 -9
7 -19 24 -21 24 -4 0 17 10 3 15 -21 2 -12 0 -19 -6 -16 -5 4 -6 11 -3 17 4 6
3 8 -3 5 -11 -7 -10 -43 2 -54 4 -5 5 -2 1 5 -4 6 -3 12 2 12 6 0 9 -11 8 -24
-1 -23 -2 -24 -20 -8 -16 13 -15 9 4 -17 13 -19 19 -31 13 -28 -7 4 -15 2 -18
-4 -4 -5 -13 -8 -21 -5 -14 6 -28 -10 -29 -33 0 -8 -6 -16 -14 -19 -10 -3 -12
1 -8 17 3 11 1 19 -4 15 -5 -3 -9 -12 -9 -20 0 -8 -8 -14 -17 -14 -15 0 -16 2
-3 10 9 6 10 10 3 10 -6 0 -15 -4 -18 -10 -3 -5 -11 -10 -16 -10 -6 0 -7 5 -3
12 4 7 3 8 -5 4 -9 -6 -9 -11 0 -22 14 -17 -2 -19 -19 -2 -9 9 -11 6 -7 -10 2
-12 6 -26 9 -30 2 -4 0 -14 -5 -22 -8 -12 -9 -11 -7 4 2 10 -2 21 -8 23 -6 2
-10 -7 -10 -19 1 -15 -5 -23 -16 -23 -9 0 -20 -4 -24 -8 -4 -4 0 -7 9 -7 9 0
19 -4 22 -10 4 -6 -1 -7 -11 -3 -13 5 -15 3 -9 -8 7 -12 6 -12 -7 -1 -13 10
-18 10 -24 1 -4 -7 -3 -9 3 -6 6 4 13 0 17 -8 3 -8 0 -17 -6 -21 -7 -4 -8 -3
-4 4 8 14 -13 16 -32 3 -11 -6 -10 -10 3 -15 9 -3 276 -5 593 -4 455 2 576 6
575 16 -2 6 4 12 12 12 13 0 14 2 3 14 -14 15 -23 12 -23 -7 0 -5 -6 -12 -12
-15 -7 -2 -13 1 -13 8 0 6 -5 8 -12 4 -7 -4 -8 -3 -4 5 4 6 11 9 16 6 4 -3 13
2 20 10 10 12 16 13 26 4 10 -8 14 -8 14 -1 0 6 7 9 15 6 12 -5 14 -2 8 12 -6
16 -4 17 8 7 12 -10 14 -6 13 21 -2 28 1 32 20 31 11 -2 20 -8 18 -14 -1 -7 2
-9 9 -5 9 5 6 12 -9 25 -18 14 -19 18 -6 23 8 3 12 2 9 -4 -3 -6 -1 -10 4 -10
15 0 14 13 -1 29 -11 11 -10 13 0 7 10 -6 12 223 12 1148 0 751 -4 1156 -10
1156 -6 0 -10 5 -10 11 0 5 5 7 10 4 6 -3 10 -2 10 3 0 11 -30 25 -38 17 -3
-3 0 -5 7 -5 7 0 9 -5 5 -11 -9 -15 -24 9 -17 28 3 8 -2 13 -12 13 -11 0 -15
-5 -11 -16 3 -8 2 -12 -4 -9 -17 10 -11 25 13 35 20 8 21 9 2 11 -11 1 -24 1
-28 0 -5 -1 -6 3 -2 9 3 6 10 8 14 6 4 -3 13 0 21 6 12 8 12 9 -2 4 -10 -3
-20 -1 -24 5 -4 7 -10 6 -19 -1 -9 -8 -15 -8 -20 0 -3 6 -11 8 -16 4 -5 -3 -9
-2 -8 3 1 4 1 16 0 27 -1 16 -3 17 -18 5 -15 -12 -16 -12 -9 6 4 11 4 16 0 12
-4 -4 -13 -2 -21 4 -9 9 -13 8 -13 0 0 -6 5 -11 12 -11 6 0 9 -2 6 -5 -9 -10
-38 7 -32 19 3 6 -2 2 -10 -8 -14 -17 -16 -18 -16 -3 0 9 -5 17 -11 17 -5 0
-7 -6 -3 -12 5 -8 0 -7 -11 2 -11 9 -16 10 -11 3 4 -7 2 -13 -3 -13 -6 0 -11
6 -11 13 0 8 -4 7 -10 -3 -9 -13 -10 -13 -10 0 0 12 -2 13 -9 1 -11 -16 -34
-5 -24 12 4 7 0 6 -10 -2 -19 -15 -23 -26 -5 -15 7 5 8 3 4 -5 -6 -9 -13 -8
-27 5 -15 14 -21 14 -34 4 -12 -10 -15 -10 -15 0 0 7 -9 2 -19 -11 l-19 -24
-11 28 c-6 16 -15 26 -20 23 -12 -8 -32 18 -32 41 1 40 5 53 15 53 6 0 5 4 -2
9 -17 11 -17 21 0 32 11 7 11 9 -1 9 -11 0 -11 3 0 17 13 15 12 15 -8 5 -29
-16 -31 -15 -29 11 0 13 6 24 13 24 9 0 9 -6 2 -21 -9 -20 -9 -20 5 -3 10 13
12 27 6 47 -6 20 -4 35 7 50 15 21 15 22 -7 10 -12 -6 -24 -9 -28 -6 -3 3 1 6
9 6 12 0 11 2 -1 11 -13 10 -13 10 1 6 9 -3 21 4 28 15 11 17 10 18 -8 9 -27
-15 -29 -14 -27 12 0 13 6 24 13 24 9 0 9 -6 2 -21 -9 -20 -9 -20 5 -3 10 13
12 27 6 47 -6 20 -4 35 7 50 15 21 15 22 -7 10 -12 -6 -24 -9 -28 -6 -3 3 1 6
9 6 12 0 11 2 -1 11 -13 10 -13 10 1 6 9 -3 21 4 28 15 11 17 10 18 -8 9 -27
-15 -29 -14 -27 12 0 13 6 24 13 24 9 0 9 -6 2 -21 -9 -20 -9 -20 5 -3 10 13
12 27 6 47 -6 20 -4 35 7 50 15 21 15 22 -7 10 -12 -6 -24 -9 -28 -6 -3 3 1 6
9 6 12 0 11 2 -1 11 -13 10 -13 10 1 6 9 -3 21 4 28 15 11 18 10 18 -9 8 -12
-6 -24 -9 -27 -6 -8 7 7 27 17 21 4 -3 11 2 14 11 5 12 1 14 -17 9 -22 -7 -22
-7 -2 8 11 8 23 13 27 11 5 -3 8 0 8 5 0 6 -5 11 -11 11 -5 0 -7 6 -3 13 5 8
3 8 -9 -2 -9 -7 -14 -17 -11 -22 3 -5 0 -9 -5 -9 -14 0 -14 6 1 33 10 19 9 20
-3 10 -12 -10 -15 -8 -15 6 0 11 6 17 13 14 7 -3 13 0 13 6 0 6 -8 11 -17 11
-17 1 -17 1 0 14 14 11 15 15 5 19 -10 4 -10 8 2 16 9 7 10 11 3 11 -6 0 -15
-4 -18 -10 -3 -5 -12 -10 -18 -9 -9 0 -9 2 0 6 20 8 -4 43 -25 37 -9 -3 -6 2
8 11 l25 16 -24 -7 c-18 -5 -22 -3 -16 7 6 9 4 11 -8 6 -19 -7 -29 16 -14 33
9 10 9 11 0 6 -6 -3 -14 -2 -18 3 -7 12 -1346 15 -1343 3z m25 -17 c0 -8 -4
-12 -9 -9 -5 3 -6 -7 -4 -21 3 -15 2 -25 -1 -21 -12 11 -12 40 -1 53 13 16 15
16 15 -2z m1317 -9 c-3 -7 -12 -13 -21 -13 -14 0 -14 1 1 12 8 7 12 16 8 20
-4 5 -2 5 5 1 7 -4 10 -12 7 -20z m-1189 -136 c-3 -5 0 -12 6 -16 7 -4 9 -3 5
4 -3 6 -2 13 4 17 5 3 10 -2 11 -12 1 -13 3 -11 9 7 7 21 8 22 9 5 1 -17 3
-17 11 -5 8 12 10 12 11 -5 1 -17 2 -16 9 5 7 21 8 22 9 5 1 -17 3 -17 11 -5
8 12 10 12 11 -5 1 -17 2 -16 9 5 7 21 8 22 9 5 1 -17 3 -17 11 -5 8 12 10 12
11 -5 1 -17 2 -16 9 5 5 16 8 19 9 8 1 -9 6 -20 13 -24 7 -5 8 -3 3 6 -5 8 -3
11 6 8 8 -3 20 2 27 11 11 14 12 13 7 -9 -5 -18 -4 -21 3 -11 6 8 17 11 27 7
12 -4 16 -2 12 8 -5 12 -1 13 26 1 27 -11 33 -11 45 4 11 14 12 13 7 -9 -5
-18 -4 -21 3 -11 6 8 17 11 27 7 12 -4 16 -2 12 8 -5 13 -1 13 29 0 19 -8 34
-10 34 -5 0 5 7 12 16 15 14 5 15 4 4 -9 -7 -9 -10 -18 -6 -22 3 -3 6 -2 6 4
0 6 9 13 20 16 14 4 20 0 21 -11 1 -10 4 -7 9 8 7 21 8 22 9 5 1 -17 3 -17 11
-5 8 12 10 12 11 -5 1 -17 2 -16 9 5 7 21 8 22 9 5 1 -17 3 -17 11 -5 8 12 10
12 11 -5 1 -17 2 -16 9 5 7 21 8 22 9 5 1 -17 3 -17 11 -5 8 12 10 12 11 -5 1
-17 2 -16 9 5 5 17 8 19 9 8 1 -10 6 -18 12 -18 6 0 9 6 6 14 -5 12 -1 13 26
1 27 -11 33 -11 45 4 11 14 12 13 7 -9 -5 -18 -4 -21 3 -11 6 8 17 11 27 7 12
-4 16 -2 12 8 -4 10 -1 13 8 10 8 -3 13 -9 12 -12 -1 -4 3 -7 8 -7 6 0 9 7 8
15 -1 8 7 4 18 -10 11 -14 17 -18 13 -9 -3 10 0 20 7 25 8 4 10 3 5 -4 -4 -7
-2 -12 4 -12 6 0 8 -6 5 -12 -4 -7 3 -2 15 12 l21 25 -6 -25 c-4 -18 -3 -21 3
-11 6 8 17 11 26 8 10 -4 16 -1 16 9 0 8 5 12 10 9 6 -4 8 -10 5 -15 -3 -5 0
-12 6 -16 7 -4 9 -3 6 2 -3 6 3 15 13 22 14 9 21 9 26 0 4 -6 3 -8 -4 -4 -6 3
-13 2 -16 -3 -6 -10 89 -5 107 5 8 5 7 2 -2 -9 -12 -15 -12 -17 1 -12 8 3 21
-1 28 -10 7 -9 8 -15 2 -15 -6 0 -12 6 -15 13 -3 6 -4 2 -4 -10 1 -13 5 -23
10 -23 4 0 5 -4 2 -10 -3 -5 0 -7 8 -4 27 10 28 -14 2 -42 -29 -31 -29 -31
-13 -40 6 -4 8 -3 5 3 -4 6 0 16 8 23 11 9 15 9 15 1 0 -7 5 -9 12 -5 7 4 8 3
4 -5 -4 -6 -12 -9 -17 -6 -13 9 -11 -2 7 -36 8 -17 13 -33 10 -37 -3 -3 -6 0
-6 7 0 7 -5 9 -10 6 -6 -4 -7 -13 -1 -23 4 -9 6 -23 3 -31 -3 -9 0 -11 9 -6
11 6 12 5 2 -6 -14 -14 -18 -33 -5 -25 4 2 8 -4 8 -14 0 -10 -6 -16 -13 -13
-7 3 -11 10 -10 15 1 6 -5 13 -13 15 -10 3 -11 2 -4 -4 6 -4 10 -16 8 -26 -1
-9 2 -15 7 -11 16 10 9 -9 -8 -22 -17 -12 -16 -13 3 -9 19 3 21 -1 18 -31 -2
-25 0 -33 9 -28 7 4 8 3 4 -2 -5 -5 -13 -10 -18 -10 -5 -1 -13 -2 -18 -3 -14
-2 -21 -30 -9 -37 6 -4 8 -3 5 3 -4 6 0 16 8 23 11 9 15 9 15 1 0 -7 5 -9 12
-5 7 4 8 3 4 -5 -4 -6 -12 -9 -17 -6 -13 9 -11 -2 7 -36 8 -17 13 -33 10 -37
-3 -3 -6 0 -6 7 0 7 -5 9 -10 6 -6 -4 -7 -13 -1 -23 4 -9 6 -23 3 -31 -3 -9 0
-11 9 -6 11 6 12 5 2 -6 -14 -14 -18 -33 -5 -25 4 2 8 -4 8 -14 0 -10 -6 -16
-13 -13 -7 3 -11 10 -10 15 1 6 -5 13 -13 15 -10 3 -11 2 -4 -4 6 -4 10 -16 8
-27 -4 -26 6 -47 20 -39 6 3 8 3 4 -2 -4 -4 -3 -14 3 -22 6 -7 10 -13 8 -14
-2 0 -15 -2 -29 -5 -24 -4 -24 -3 -6 11 16 12 17 15 4 15 -18 0 -32 -27 -18
-35 6 -4 15 -3 20 0 6 3 10 1 10 -4 0 -6 -6 -11 -12 -12 -10 0 -10 -2 0 -6 6
-2 12 -9 12 -14 0 -6 -5 -7 -12 -3 -8 5 -9 2 -5 -10 4 -10 3 -15 -3 -11 -6 3
-10 14 -11 23 0 14 -2 13 -8 -3 -5 -11 -6 -24 -3 -30 4 -5 -6 -2 -22 8 -18 12
-31 15 -39 9 -14 -11 -48 -12 -42 -2 3 4 -8 7 -24 6 -16 0 -27 -4 -24 -9 2 -4
8 -5 13 -2 5 3 12 1 15 -5 4 -6 1 -9 -7 -8 -7 2 -12 -3 -10 -10 1 -8 -2 -11
-8 -7 -6 3 -8 10 -5 15 3 4 -1 10 -8 13 -10 4 -13 -2 -9 -20 3 -15 1 -23 -5
-20 -11 7 -11 -38 0 -49 4 -5 5 0 1 11 -4 11 -4 17 0 14 12 -11 17 -59 6 -59
-6 0 -9 4 -6 9 3 5 -1 12 -9 15 -13 4 -14 2 -5 -14 8 -15 8 -20 -2 -20 -8 0
-9 -3 -3 -8 15 -11 17 -32 5 -47 -8 -10 -8 -15 1 -20 8 -6 7 -10 -2 -17 -11
-8 -11 -9 1 -5 8 2 14 14 14 25 -1 12 3 22 8 22 6 0 8 -7 4 -15 -3 -8 0 -15 7
-16 9 0 9 -2 -1 -6 -6 -2 -10 -9 -6 -14 3 -5 -2 -9 -10 -9 -9 0 -16 -5 -16
-11 0 -5 4 -8 9 -5 5 3 11 -3 14 -15 5 -17 3 -18 -11 -7 -13 10 -14 10 -8 0 4
-7 2 -20 -5 -28 -7 -8 -8 -14 -3 -13 19 3 34 -1 34 -12 0 -6 -10 -8 -22 -5
-13 3 -17 3 -10 0 6 -3 12 -12 12 -20 0 -9 5 -12 12 -8 6 4 8 3 4 -4 -3 -6
-18 -9 -31 -6 -14 2 -25 0 -25 -6 0 -6 5 -8 10 -5 11 7 14 -8 3 -18 -3 -4 -13
2 -21 14 -8 11 -20 18 -28 15 -7 -3 -16 -1 -20 5 -3 6 -11 8 -18 6 -6 -3 -20
1 -29 8 -16 11 -16 13 -2 19 9 3 13 2 10 -3 -3 -5 0 -13 6 -16 7 -5 10 0 7 11
-2 11 -12 19 -23 19 -15 0 -19 6 -17 25 2 19 0 22 -8 10 -9 -13 -14 -7 -11 12
0 4 -7 4 -16 1 -11 -4 -14 -3 -9 5 4 7 2 12 -3 12 -6 0 -11 -6 -11 -12 0 -9
-3 -8 -10 2 -6 9 -5 20 3 29 9 12 9 13 0 7 -8 -4 -13 -2 -13 4 0 7 -9 9 -22 6
-13 -3 -17 -3 -10 0 19 9 15 35 -5 27 -10 -4 -14 -2 -9 5 3 6 -3 13 -14 17
-11 3 -20 11 -20 16 0 6 5 7 10 4 6 -3 10 -1 10 4 0 15 -13 14 -29 -1 -11 -11
-12 -9 -6 9 5 18 3 22 -9 17 -16 -6 -19 2 -17 36 0 10 -1 11 -5 3 -3 -7 -11
-13 -16 -13 -6 0 -9 3 -5 6 10 10 -23 37 -47 39 -11 1 -19 6 -16 11 3 5 11 8
18 8 6 -1 12 2 12 7 0 12 -33 11 -48 -1 -9 -7 -9 -7 -2 2 16 19 12 30 -10 23
-12 -4 -20 -2 -20 5 0 6 4 9 9 5 5 -3 12 -2 15 3 2 4 -15 8 -39 8 -24 0 -41
-4 -39 -8 2 -4 -5 -6 -16 -5 -14 1 -19 6 -15 17 4 11 1 10 -9 -2 -14 -18 -32
-25 -22 -9 7 11 -21 8 -31 -4 -4 -4 -2 -5 6 0 10 6 12 4 7 -4 -6 -9 -11 -9
-22 0 -7 6 -11 16 -7 22 3 6 1 7 -6 3 -6 -4 -9 -11 -6 -16 3 -5 -4 -8 -15 -7
-11 1 -20 5 -20 9 0 4 -5 8 -11 8 -5 0 -7 -4 -4 -10 8 -13 -8 -13 -22 1 -8 8
-13 7 -18 -2 -6 -8 -4 -10 5 -4 9 5 11 4 6 -4 -6 -9 -11 -9 -22 0 -7 6 -11 16
-7 22 3 6 1 7 -6 3 -6 -4 -9 -11 -6 -15 2 -5 -6 -8 -20 -8 -14 0 -22 3 -19 8
3 5 0 9 -5 9 -6 0 -11 -5 -11 -11 0 -8 -4 -8 -14 0 -11 9 -16 9 -22 0 -5 -8
-3 -9 6 -4 9 5 11 4 6 -4 -6 -8 -12 -9 -20 -2 -7 6 -16 8 -19 4 -4 -3 -7 -1
-7 5 0 7 -5 12 -11 12 -5 0 -7 -5 -3 -12 5 -7 2 -9 -9 -5 -9 3 -18 1 -21 -6
-4 -7 -4 -1 -2 13 4 21 3 22 -7 10 -7 -8 -19 -16 -27 -18 -8 -2 -12 0 -8 3 4
4 -2 15 -14 25 -17 13 -18 17 -5 17 9 0 14 -4 12 -8 -3 -4 2 -9 10 -13 8 -3
17 0 21 6 5 7 2 8 -6 3 -10 -6 -12 -4 -7 9 4 10 3 15 -3 11 -5 -3 -14 5 -21
17 -11 20 -10 21 2 11 12 -10 15 -8 15 8 0 11 -5 18 -11 15 -13 -5 -13 30 0
41 4 5 5 3 1 -4 -8 -14 10 -28 18 -14 4 5 2 12 -4 16 -6 4 -7 11 -4 17 5 7 2
8 -6 3 -8 -5 -11 -3 -8 6 3 8 12 13 19 11 11 -3 11 -1 2 9 -10 10 -10 16 0 28
11 14 10 14 -5 2 -10 -7 -16 -17 -13 -20 2 -4 -2 -8 -9 -8 -10 0 -10 6 3 28 8
15 20 25 26 22 5 -2 -1 4 -14 15 -18 14 -21 21 -11 27 9 5 11 4 6 -3 -4 -7 -3
-12 2 -12 6 0 12 7 16 15 3 8 0 14 -6 12 -6 -1 -13 4 -16 12 -2 8 0 11 5 8 11
-7 9 40 -1 50 -3 4 -1 12 5 20 14 16 -2 18 -18 2 -8 -8 -13 -8 -18 0 -4 7 -1
10 7 9 7 -2 12 5 12 15 -2 15 1 16 14 5 14 -12 14 -10 2 12 -12 23 -12 24 4
11 14 -12 16 -12 10 3 -3 9 -14 16 -23 17 -11 0 -9 3 7 9 12 5 22 15 21 22 0
10 -2 10 -6 1 -7 -20 -19 -15 -20 7 -1 11 2 18 7 15 6 -3 7 0 4 8 -3 8 2 20
11 27 8 7 15 17 15 23 0 6 -6 2 -14 -9 -13 -16 -17 -17 -28 -5 -7 8 -8 11 -2
8 7 -4 15 0 18 9 4 11 2 15 -7 11 -15 -6 -17 27 -2 40 4 5 5 3 1 -4 -8 -14 10
-28 18 -14 4 5 2 12 -3 16 -6 3 -8 12 -4 20 3 8 0 15 -7 15 -6 0 -9 -4 -6 -8
3 -5 -1 -9 -9 -9 -20 0 -19 13 1 21 9 4 14 9 11 13 -4 3 -1 13 6 21 10 13 9
15 -3 10 -11 -4 -16 0 -16 13 0 14 3 15 13 7 11 -8 12 -7 7 7 -6 14 -4 16 7
10 11 -7 12 -6 3 6 -6 8 -11 25 -12 39 -1 17 2 20 7 11 6 -8 16 -11 31 -6 17
5 21 4 15 -5 -5 -9 -4 -11 3 -6 7 4 12 14 12 22 0 8 5 12 10 9 6 -4 8 -10 5
-15z m1049 12 c3 -5 -1 -9 -9 -9 -8 0 -12 4 -9 9 3 4 7 8 9 8 2 0 6 -4 9 -8z
m110 -60 c2 -4 -5 -9 -17 -9 -17 -2 -19 0 -7 7 18 12 18 12 24 2z m143 -157
c0 -8 -4 -15 -9 -15 -10 0 -11 14 -1 23 9 10 10 9 10 -8z m-1542 -14 c3 -5 2
-12 -3 -15 -5 -3 -9 1 -9 9 0 17 3 19 12 6z m1542 -146 c0 -8 -4 -15 -9 -15
-10 0 -11 14 -1 23 9 10 10 9 10 -8z m-1391 -87 c3 -4 -1 -5 -10 -4 -8 1 -18
5 -22 8 -3 4 1 5 10 4 8 -1 18 -5 22 -8z m1391 -73 c0 -8 -4 -15 -9 -15 -10 0
-11 14 -1 23 9 10 10 9 10 -8z m-1403 -23 c3 -5 -1 -9 -9 -9 -8 0 -12 4 -9 9
3 4 7 8 9 8 2 0 6 -4 9 -8z m1410 -121 c-3 -50 -3 -51 -12 -51 -4 0 -8 9 -9
20 -1 11 3 20 8 20 6 0 7 6 2 13 -12 19 -12 34 1 34 8 0 12 -14 10 -36z m11
-101 c10 -11 23 -17 29 -13 6 3 7 2 3 -2 -12 -14 -37 -15 -34 -2 1 7 -4 11
-11 9 -8 -1 -11 2 -8 7 4 5 0 12 -6 14 -8 3 -8 6 -2 6 6 1 19 -8 29 -19z
m-1975 -94 c0 -3 -4 -8 -10 -11 -5 -3 -10 -1 -10 4 0 6 5 11 10 11 6 0 10 -2
10 -4z m1597 -86 c-1 -21 -10 -18 -13 5 -1 8 2 15 6 15 5 0 8 -9 7 -20z m878
-19 c3 -5 2 -12 -3 -15 -5 -3 -9 1 -9 9 0 17 3 19 12 6z m-969 -214 c9 3 14
-2 14 -13 0 -12 -3 -15 -8 -8 -4 6 -14 10 -23 9 -9 -2 -16 4 -16 11 0 9 4 11
10 5 5 -5 16 -7 23 -4z m-564 -880 c-4 -17 -25 -20 -22 -3 1 5 -4 12 -11 16
-7 5 -2 7 13 7 19 -2 24 -6 20 -20z m-819 -61 c6 -15 -17 -16 -30 -1 -4 4 -2
5 5 1 6 -4 12 -2 12 3 0 15 7 14 13 -3z m1152 -594 c-3 -3 -11 0 -18 7 -9 10
-8 11 6 5 10 -3 15 -9 12 -12z m45 -102 c0 -5 -2 -10 -4 -10 -3 0 -8 5 -11 10
-3 6 -1 10 4 10 6 0 11 -4 11 -10z m80 -180 c0 -5 -5 -10 -11 -10 -5 0 -7 5
-4 10 3 6 8 10 11 10 2 0 4 -4 4 -10z m47 -245 c0 -8 -4 -12 -9 -9 -5 3 -6 10
-3 15 9 13 12 11 12 -6z m33 1 c0 -3 -4 -8 -10 -11 -5 -3 -10 -1 -10 4 0 6 5
11 10 11 6 0 10 -2 10 -4z"/>
<path d="M1547 3439 c7 -7 15 -10 18 -7 3 3 -2 9 -12 12 -14 6 -15 5 -6 -5z"/>
<path d="M1667 3439 c7 -7 15 -10 18 -7 3 3 -2 9 -12 12 -14 6 -15 5 -6 -5z"/>
<path d="M1947 3439 c7 -7 15 -10 18 -7 3 3 -2 9 -12 12 -14 6 -15 5 -6 -5z"/>
<path d="M2390 3360 c-9 -6 -10 -10 -3 -10 6 0 15 5 18 10 8 12 4 12 -15 0z"/>
<path d="M1195 3339 c-4 -6 -5 -12 -2 -15 2 -3 7 2 10 11 7 17 1 20 -8 4z"/>
<path d="M2390 3273 c5 -2 8 -9 4 -14 -3 -5 0 -9 6 -9 15 0 7 23 -8 26 -7 1
-8 0 -2 -3z"/>
<path d="M2373 3235 c0 -8 4 -12 9 -9 5 3 6 10 3 15 -9 13 -12 11 -12 -6z"/>
<path d="M2386 3212 c-3 -5 1 -9 9 -9 8 0 12 4 9 9 -3 4 -7 8 -9 8 -2 0 -6 -4
-9 -8z"/>
<path d="M2380 3182 c0 -5 7 -9 15 -9 8 0 12 4 9 9 -3 4 -9 8 -15 8 -5 0 -9
-4 -9 -8z"/>
<path d="M2380 3060 c0 -5 7 -7 15 -4 8 4 15 8 15 10 0 2 -7 4 -15 4 -8 0 -15
-4 -15 -10z"/>
<path d="M2390 3040 c-9 -6 -10 -10 -3 -10 6 0 15 5 18 10 8 12 4 12 -15 0z"/>
<path d="M2390 2953 c5 -2 8 -9 4 -14 -3 -5 0 -9 6 -9 15 0 7 23 -8 26 -7 1
-8 0 -2 -3z"/>
<path d="M2373 2915 c0 -8 4 -12 9 -9 5 3 6 10 3 15 -9 13 -12 11 -12 -6z"/>
<path d="M2386 2892 c-3 -5 1 -9 9 -9 8 0 12 4 9 9 -3 4 -7 8 -9 8 -2 0 -6 -4
-9 -8z"/>
<path d="M2380 2862 c0 -5 7 -9 15 -9 8 0 12 4 9 9 -3 4 -9 8 -15 8 -5 0 -9
-4 -9 -8z"/>
<path d="M1050 3539 c0 -5 5 -7 10 -4 6 3 10 8 10 11 0 2 -4 4 -10 4 -5 0 -10
-5 -10 -11z"/>
<path d="M970 3386 c0 -2 7 -7 16 -10 8 -3 12 -2 9 4 -6 10 -25 14 -25 6z"/>
<path d="M993 3345 c0 -8 4 -12 9 -9 5 3 6 10 3 15 -9 13 -12 11 -12 -6z"/>
<path d="M975 3231 c-3 -5 -2 -12 3 -15 5 -3 9 1 9 9 0 17 -3 19 -12 6z"/>
<path d="M975 2991 c-6 -11 13 -26 22 -17 4 3 1 6 -6 6 -7 0 -9 5 -6 10 3 6 4
10 1 10 -3 0 -7 -4 -11 -9z"/>
<path d="M980 2939 c0 -4 6 -9 13 -12 8 -3 14 0 14 7 0 7 -6 13 -14 13 -7 0
-13 -4 -13 -8z"/>
<path d="M995 2751 c-6 -11 13 -26 22 -17 4 3 0 6 -8 6 -11 0 -11 2 1 10 9 6
10 10 3 10 -6 0 -14 -4 -18 -9z"/>
<path d="M2640 2654 c0 -8 5 -12 10 -9 6 4 8 11 5 16 -9 14 -15 11 -15 -7z"/>
<path d="M2980 2625 c0 -2 6 -8 13 -14 10 -8 14 -7 14 2 0 8 -6 14 -14 14 -7
0 -13 -1 -13 -2z"/>
<path d="M540 2561 c0 -6 4 -13 10 -16 6 -3 7 1 4 9 -7 18 -14 21 -14 7z"/>
<path d="M1431 1356 c-9 -11 -9 -16 0 -22 7 -4 9 -3 5 4 -3 5 0 12 6 15 7 2
10 7 7 11 -3 4 -12 0 -18 -8z"/>
<path d="M886 1301 c-3 -4 6 -7 19 -7 14 0 22 2 19 5 -8 8 -34 10 -38 2z"/>
<path d="M1396 1302 c-3 -5 1 -9 9 -9 8 0 12 4 9 9 -3 4 -7 8 -9 8 -2 0 -6 -4
-9 -8z"/>
<path d="M1683 1228 c-13 -21 -12 -35 3 -35 9 0 11 4 4 12 -6 7 -5 16 2 23 7
7 9 12 6 12 -4 0 -10 -6 -15 -12z"/>
<path d="M727 1216 c-3 -7 -1 -18 5 -24 8 -8 4 -9 -12 -5 -15 4 -21 2 -17 -5
5 -6 -2 -9 -18 -8 -13 2 -22 -1 -19 -5 3 -5 0 -9 -5 -9 -6 0 -11 -5 -11 -11 0
-8 4 -8 14 0 10 8 16 9 21 1 6 -10 5 -11 -17 -14 -7 -1 -12 -10 -10 -21 2 -11
-1 -16 -5 -10 -17 21 -29 12 -29 -20 0 -19 4 -31 10 -28 5 4 7 -1 3 -11 -4
-10 -3 -15 3 -11 5 3 14 -4 20 -15 6 -11 8 -20 4 -20 -3 0 -2 -6 3 -12 6 -7 9
-21 8 -30 -2 -11 2 -15 12 -11 13 5 13 3 3 -17 -7 -13 -8 -20 -1 -16 11 7 34
-28 24 -38 -3 -3 1 -6 10 -6 21 0 31 -17 16 -26 -7 -4 -9 -3 -6 3 3 5 0 10 -8
10 -10 0 -10 -5 3 -23 9 -13 21 -24 26 -24 5 0 2 8 -5 18 -13 15 -12 16 3 4
10 -8 14 -20 11 -29 -4 -10 -2 -14 4 -10 6 4 18 -6 27 -21 l17 -27 -20 23 -20
23 3 -28 c3 -21 8 -27 22 -25 14 2 13 -1 -6 -13 l-25 -15 29 5 c16 2 26 1 22
-2 -3 -4 4 -18 16 -31 13 -14 17 -22 11 -18 -8 4 -13 1 -13 -9 0 -9 5 -13 11
-10 6 4 10 1 8 -6 -3 -29 1 -50 11 -44 6 3 10 -1 10 -10 0 -9 -4 -13 -10 -10
-5 3 -7 0 -4 -8 3 -8 16 -20 29 -27 13 -7 21 -18 18 -26 -3 -8 -10 -11 -16 -7
-6 4 -7 1 -3 -6 6 -9 13 -8 29 6 l20 18 -19 -30 c-18 -29 -18 -30 0 -15 18 14
19 14 7 -7 -6 -13 -7 -23 -2 -23 5 0 12 6 14 13 4 7 6 8 6 1 1 -6 -6 -17 -14
-24 -8 -7 -15 -18 -15 -24 0 -6 5 -3 11 6 6 11 16 15 26 11 10 -4 14 -2 10 4
-3 5 0 10 7 10 8 0 11 -8 9 -18 -3 -11 -11 -16 -21 -12 -14 4 -14 3 -3 -5 8
-6 21 -8 29 -4 10 3 13 1 8 -6 -7 -11 24 -9 43 3 6 3 14 -2 19 -11 8 -15 10
-15 15 0 4 10 3 15 -2 12 -5 -3 -11 0 -14 8 -4 9 0 12 11 9 10 -2 23 5 30 18
8 11 10 19 5 16 -5 -3 -15 4 -23 16 -11 19 -11 20 1 11 16 -13 51 -15 43 -2
-3 5 -9 6 -14 3 -4 -3 -10 1 -13 8 -4 10 2 13 19 9 28 -5 30 0 8 22 -14 15
-14 16 5 16 11 0 23 5 27 12 4 6 3 8 -3 5 -6 -4 -14 0 -17 9 -3 8 -2 12 4 9 6
-3 10 1 10 9 0 9 4 16 10 16 5 0 7 -8 4 -17 -5 -17 -5 -17 6 0 6 9 15 15 21
12 5 -4 9 -1 9 5 0 6 -6 10 -14 8 -8 -2 -14 2 -14 7 1 24 11 32 31 28 14 -3
18 -2 10 4 -7 5 -11 19 -10 31 1 22 2 22 14 6 16 -22 17 -10 2 19 l-12 22 23
-20 23 -20 -19 30 c-15 23 -15 27 -3 17 14 -10 19 -8 34 14 9 15 13 24 7 20
-5 -3 -15 1 -22 9 -11 13 -10 14 6 8 16 -6 17 -4 7 8 -8 10 -9 19 -1 29 8 13
9 12 5 -2 -3 -9 0 -19 8 -22 9 -3 12 0 8 10 -3 8 1 14 8 14 11 0 11 2 -1 10
-13 8 -13 11 -1 22 10 10 12 10 7 1 -4 -7 -2 -13 3 -13 6 0 11 7 11 16 0 14 3
15 18 3 9 -7 6 -1 -8 15 -23 26 -23 28 -3 18 18 -10 20 -9 16 8 -3 11 -10 17
-17 13 -6 -3 0 6 13 20 14 15 27 27 29 27 3 0 -2 -8 -11 -18 -10 -10 -14 -22
-10 -25 16 -17 22 -5 24 46 0 9 4 15 9 12 6 -3 8 8 6 25 -3 26 -1 29 12 18 13
-11 14 -11 7 1 -5 9 -3 18 7 25 8 6 18 22 22 36 7 24 6 24 -8 6 -9 -11 -16
-15 -16 -9 0 7 5 15 10 18 23 14 -21 90 -46 81 -7 -3 -15 0 -18 7 -3 9 -5 9
-5 0 -1 -7 -5 -13 -11 -13 -5 0 -7 8 -4 18 5 16 5 16 -6 0 -6 -10 -16 -18 -22
-18 -6 0 -5 7 3 18 12 15 12 16 -2 5 -9 -7 -20 -9 -24 -5 -5 4 -5 1 -1 -5 10
-18 -2 -16 -21 2 -14 14 -18 14 -40 -1 -14 -9 -23 -12 -19 -6 3 5 -8 12 -24
14 -22 3 -30 0 -31 -11 -1 -9 -5 -5 -9 9 -5 16 -8 19 -9 8 -1 -9 -6 -20 -13
-24 -7 -4 -8 -3 -4 4 5 8 -1 12 -16 12 -13 0 -29 5 -35 11 -8 8 -13 8 -17 0
-5 -8 -13 -8 -26 -1 -13 7 -21 7 -25 0 -4 -6 -11 -7 -17 -4 -8 5 -9 1 -4 -11
5 -15 4 -16 -9 -5 -8 7 -12 17 -9 24 3 6 -3 1 -14 -11 -16 -18 -21 -20 -25 -8
-6 14 -43 15 -65 1 -8 -5 -11 -3 -10 5 2 7 -5 15 -14 17 -10 2 -18 -2 -18 -8
0 -6 5 -8 10 -5 6 3 10 1 10 -5 0 -7 -7 -9 -16 -6 -9 3 -22 6 -30 6 -9 0 -12
4 -9 10 3 6 -1 7 -10 4 -11 -5 -14 -2 -9 10 3 9 4 16 1 16 -3 0 -7 -6 -10 -14z
m300 -25 c8 8 13 7 17 0 7 -11 -2 -13 -44 -13 -29 0 -32 1 -25 12 4 7 13 7 24
0 12 -6 22 -5 28 1z m203 -11 c0 -5 -5 -10 -11 -10 -5 0 -7 5 -4 10 3 6 8 10
11 10 2 0 4 -4 4 -10z m145 -27 c5 -14 3 -15 -6 -6 -6 6 -19 9 -28 6 -14 -4
-14 -3 -1 6 21 15 27 14 35 -6z m-725 -74 c0 -5 -4 -9 -8 -9 -5 0 -9 7 -9 15
0 8 4 12 9 9 4 -3 8 -9 8 -15z m33 -54 c-3 -9 -8 -14 -10 -11 -3 3 -2 9 2 15
9 16 15 13 8 -4z m27 -49 c0 -2 -7 -7 -16 -10 -8 -3 -12 -2 -9 4 6 10 25 14
25 6z m4 -48 c-5 -7 -2 -9 7 -6 10 4 14 -2 14 -18 l0 -24 -17 22 c-15 20 -16
38 -2 38 3 0 2 -5 -2 -12z m530 -183 c-4 -8 -8 -15 -10 -15 -2 0 -4 7 -4 15 0
8 4 15 10 15 5 0 7 -7 4 -15z m-377 -120 c0 -8 -4 -12 -9 -9 -5 3 -6 10 -3 15
9 13 12 11 12 -6z m27 -71 c5 -14 4 -15 -9 -4 -17 14 -19 20 -6 20 5 0 12 -7
15 -16z m181 -103 c3 -5 2 -12 -3 -15 -5 -3 -9 1 -9 9 0 17 3 19 12 6z m-64
-44 c-10 -9 -11 -8 -5 6 3 10 9 15 12 12 3 -3 0 -11 -7 -18z"/>
<path d="M771 1214 c0 -11 3 -14 6 -6 3 7 2 16 -1 19 -3 4 -6 -2 -5 -13z"/>
<path d="M835 1220 c-3 -5 -1 -10 4 -10 6 0 11 5 11 10 0 6 -2 10 -4 10 -3 0
-8 -4 -11 -10z"/>
<path d="M886 1222 c-3 -5 1 -9 9 -9 8 0 12 4 9 9 -3 4 -7 8 -9 8 -2 0 -6 -4
-9 -8z"/>
<path d="M670 1203 c0 -19 17 -24 30 -8 9 10 9 15 1 15 -6 0 -11 -6 -11 -12 0
-9 -4 -8 -10 2 -6 9 -10 10 -10 3z"/>
<path d="M630 1140 c0 -5 5 -10 11 -10 5 0 7 5 4 10 -3 6 -8 10 -11 10 -2 0
-4 -4 -4 -10z"/>
<path d="M1415 1120 c3 -5 8 -10 11 -10 2 0 4 5 4 10 0 6 -5 10 -11 10 -5 0
-7 -4 -4 -10z"/>
<path d="M1532 1075 c2 -11 8 -23 13 -27 6 -5 6 -8 -2 -8 -7 0 -17 8 -23 18
-10 15 -11 15 -5 -3 15 -44 15 -57 1 -46 -13 11 -26 5 -26 -11 0 -5 6 -6 13
-2 9 6 9 5 0 -8 -7 -8 -12 -17 -10 -19 1 -2 -3 2 -10 9 -9 11 -11 6 -9 -21 3
-29 0 -34 -13 -29 -14 5 -14 4 -1 -13 14 -17 14 -18 -10 -5 -24 13 -25 12 -7
-7 9 -11 17 -24 17 -29 0 -5 -4 -3 -9 5 -14 22 -33 4 -20 -20 10 -19 9 -20
-11 -9 -13 7 -20 8 -16 2 3 -6 2 -13 -3 -17 -5 -3 -10 -13 -10 -23 -2 -44 -5
-49 -28 -46 -20 2 -22 0 -12 -12 14 -17 23 -19 13 -2 -4 7 -3 8 5 4 6 -4 9
-12 5 -17 -3 -5 -10 -6 -16 -3 -7 5 -9 1 -5 -9 4 -11 1 -17 -8 -17 -8 0 -15
-5 -15 -11 0 -5 6 -7 13 -4 6 4 4 0 -5 -8 -20 -16 -25 -32 -6 -21 7 4 8 3 4
-4 -4 -6 -13 -9 -21 -5 -11 4 -13 1 -8 -13 4 -12 3 -15 -5 -10 -9 5 -9 0 -1
-20 10 -27 9 -27 -9 -11 -15 14 -19 14 -19 2 0 -8 4 -12 7 -10 4 3 8 -7 8 -20
0 -23 -2 -24 -14 -8 -12 17 -13 16 -9 -4 3 -17 -1 -21 -21 -18 l-25 2 21 -19
c20 -19 27 -34 11 -23 -5 3 -19 -8 -31 -25 -12 -17 -26 -27 -32 -24 -7 4 -8 2
-4 -4 5 -9 15 -7 34 4 l27 16 -25 -21 c-14 -11 -21 -21 -16 -21 5 0 3 -7 -4
-15 -6 -8 -8 -20 -4 -26 4 -8 3 -9 -4 -5 -7 4 -12 2 -12 -3 0 -6 -5 -10 -11
-9 -6 2 -13 -7 -15 -19 -2 -13 1 -23 7 -23 5 0 7 6 3 13 -4 6 1 5 12 -4 10 -9
26 -19 34 -22 13 -5 13 -6 0 -7 -8 -1 -23 -3 -33 -5 -9 -2 -15 1 -11 6 3 5 0
9 -5 9 -6 0 -11 -7 -11 -15 0 -10 10 -13 34 -11 19 1 33 -1 31 -4 -2 -4 2 -7
10 -7 8 0 12 4 9 9 -3 4 0 8 5 8 6 0 11 -5 11 -11 0 -6 8 -1 18 11 14 18 19
19 19 7 0 -9 -3 -14 -7 -12 -4 2 -7 -2 -7 -10 0 -8 4 -15 9 -15 4 0 8 5 8 11
0 5 4 7 10 4 6 -4 7 1 3 11 -4 11 -3 15 5 10 6 -3 15 1 20 10 8 15 10 15 15 0
4 -10 3 -15 -3 -11 -6 3 -10 2 -10 -3 0 -6 7 -12 15 -16 8 -3 14 0 12 7 -1 7
4 11 11 9 6 -1 11 4 10 10 -2 7 3 12 11 10 7 -1 21 3 30 10 14 12 15 11 2 -4
-9 -13 -10 -18 -2 -18 7 0 9 -5 5 -12 -6 -10 -5 -10 8 -1 8 7 18 10 22 6 4 -4
4 0 1 8 -3 9 0 21 8 27 11 9 14 8 14 -3 0 -8 -5 -11 -10 -8 -6 3 -7 1 -3 -5
10 -17 26 -15 26 2 0 8 5 18 12 22 7 4 8 3 4 -4 -4 -7 -1 -12 9 -12 10 0 13 5
9 13 -6 9 -5 9 8 0 8 -7 18 -10 22 -6 4 4 4 0 0 -10 -3 -10 -1 -17 5 -17 6 0
11 10 12 23 0 12 3 16 6 10 2 -7 9 -13 14 -13 6 0 8 4 5 8 -3 5 8 8 25 8 16 0
29 -2 29 -6 0 -3 18 -6 39 -6 22 0 38 3 35 8 -5 7 10 12 29 9 4 0 7 5 7 11 0
9 3 8 10 -2 11 -18 30 -20 49 -6 11 8 13 8 8 -1 -4 -6 -2 -15 4 -19 7 -4 9 -3
6 3 -4 6 2 13 13 16 21 5 28 37 8 37 -6 0 -8 3 -5 6 4 4 13 1 22 -6 13 -11 14
-10 8 6 -6 17 -5 18 12 4 18 -14 18 -14 2 11 -10 14 -14 29 -10 32 3 4 -1 7
-10 7 -10 0 -16 6 -15 13 2 6 -4 11 -12 9 -11 -3 -10 2 4 17 12 13 14 21 7 21
-7 0 -9 5 -5 11 4 8 0 8 -15 0 -17 -9 -21 -9 -19 1 2 7 -4 12 -12 10 -12 -3
-12 -1 1 15 13 15 14 23 5 46 -7 15 -14 26 -17 25 -2 -2 -1 1 3 6 11 14 10 26
-3 26 -5 0 -7 -4 -4 -10 3 -5 1 -10 -5 -10 -6 0 -8 10 -4 28 7 24 6 26 -10 13
-9 -8 -19 -11 -23 -7 -3 3 -1 6 5 6 19 0 14 18 -5 23 -17 4 -17 5 0 6 10 0 15
6 12 11 -3 6 -1 10 6 10 7 0 9 3 6 6 -4 4 -13 1 -21 -5 -12 -10 -14 -8 -9 11
4 18 3 20 -6 8 -8 -12 -10 -10 -8 8 1 16 6 21 17 17 11 -5 12 -3 3 6 -6 6 -9
19 -6 28 3 9 -2 6 -11 -7 -17 -22 -36 -22 -36 1 0 8 3 8 9 -2 7 -11 10 -11 17
0 4 7 3 14 -4 17 -7 2 -12 8 -12 13 0 6 4 8 8 5 5 -3 9 1 9 9 0 8 -5 11 -11 7
-15 -9 -54 -14 -40 -5 12 9 24 94 12 87 -4 -2 -11 4 -17 13 -6 10 -11 13 -11
8 0 -6 6 -17 13 -24 10 -10 9 -11 -5 -6 -20 8 -24 51 -6 57 7 3 5 7 -6 11 -9
4 -15 3 -11 -2 3 -5 2 -12 -3 -15 -5 -3 -8 19 -8 49 1 55 -7 72 -17 35 -3 -11
-11 -20 -19 -19 -10 0 -10 2 0 6 15 6 16 33 1 33 -5 0 -7 5 -3 12 4 7 3 8 -5
4 -7 -5 -9 -13 -4 -20 4 -7 0 -3 -9 7 -17 18 -22 16 -19 -8 1 -5 -6 -1 -15 10
l-16 20 4 -20z m129 -182 c13 -16 12 -17 -3 -4 -17 13 -22 21 -14 21 2 0 10
-8 17 -17z m-246 -63 c-3 -5 -1 -19 5 -30 6 -11 8 -20 6 -20 -10 0 -27 41 -21
50 3 6 8 10 11 10 3 0 2 -4 -1 -10z m-52 -155 c-3 -9 -8 -14 -10 -11 -3 3 -2
9 2 15 9 16 15 13 8 -4z m-108 -195 c3 -6 -1 -7 -9 -4 -18 7 -21 14 -7 14 6 0
13 -4 16 -10z m623 -65 c-3 -3 -9 2 -12 12 -6 14 -5 15 5 6 7 -7 10 -15 7 -18z
m-26 -39 c7 4 8 2 4 -5 -9 -13 -26 -5 -25 12 0 9 2 8 6 -1 2 -6 10 -9 15 -6z
m-48 -14 c3 -5 -1 -9 -9 -9 -8 0 -12 4 -9 9 3 4 7 8 9 8 2 0 6 -4 9 -8z m-104
-12 c18 -12 2 -12 -25 0 -13 6 -15 9 -5 9 8 0 22 -4 30 -9z"/>
<path d="M522 1008 c-9 -9 -8 -15 1 -27 9 -12 9 -13 0 -7 -10 6 -13 -61 -13
-318 0 -285 2 -325 15 -320 8 4 12 11 8 18 -4 7 -1 7 9 -1 8 -7 18 -9 23 -5 4
4 5 -4 1 -18 -3 -14 -3 -19 0 -12 5 10 9 10 20 1 14 -11 15 -10 18 11 1 10 12
11 34 3 13 -5 17 -24 5 -22 -5 1 -15 1 -23 0 -13 -1 -13 -3 -1 -10 9 -6 21 -5
33 2 15 10 21 9 28 -3 6 -9 10 -10 10 -3 0 7 -8 16 -17 22 -16 9 -16 10 4 8
12 0 21 -4 21 -7 -1 -17 3 -30 12 -30 5 0 7 8 4 18 -5 15 -4 15 10 -2 8 -10
13 -22 11 -26 -2 -3 9 -6 25 -6 20 0 26 4 23 14 -4 10 -8 11 -13 2 -9 -14 -30
-5 -30 13 0 8 3 8 9 -2 6 -9 11 -10 15 -2 5 7 12 7 26 -1 10 -7 17 -16 14 -20
-3 -4 3 -5 12 -1 11 4 13 8 6 11 -7 2 -12 8 -12 13 0 4 8 6 18 3 15 -5 15 -4
1 8 -14 12 -14 15 4 33 20 20 20 20 8 -3 -8 -14 -8 -22 -1 -22 5 0 10 7 10 16
0 8 4 12 10 9 6 -3 7 1 4 9 -3 9 -10 16 -16 16 -5 0 -6 6 -2 13 4 6 4 9 -1 5
-4 -4 -14 0 -21 10 -8 10 -13 12 -14 5 0 -7 -5 -13 -11 -13 -8 0 -8 4 0 14 13
16 4 49 -12 39 -6 -3 -7 -1 -3 6 6 9 11 9 22 0 12 -10 13 -9 8 5 -6 15 -17 20
-36 17 -4 0 -5 5 -3 12 3 6 7 26 9 44 3 30 2 31 -21 22 -34 -13 -37 -11 -19 7
21 20 20 34 -1 34 -15 0 -16 -2 -3 -10 8 -5 10 -10 4 -10 -6 0 -18 8 -25 17
-8 9 -9 14 -4 11 6 -4 17 -3 25 3 13 7 12 9 -1 9 -12 0 -16 8 -14 30 3 35 2
36 -16 13 -12 -14 -12 -15 -1 -9 11 7 12 4 3 -13 -7 -11 -13 -21 -15 -21 -5 0
1 48 8 59 4 5 1 13 -5 17 -8 4 -7 9 2 16 12 8 12 9 0 6 -8 -2 -15 -12 -17 -21
-1 -11 2 -14 9 -10 7 4 6 -1 -2 -10 -18 -22 -18 -22 -16 11 1 15 -2 33 -8 40
-7 8 -5 12 5 12 8 0 15 7 15 15 0 11 -4 12 -11 5 -17 -17 -29 -11 -15 7 10 11
10 14 2 9 -8 -4 -13 -2 -13 4 0 6 -4 8 -10 5 -5 -3 -10 1 -10 10 0 9 4 14 8
11 5 -3 9 1 9 9 0 8 -5 11 -10 8 -7 -4 -8 1 -3 12 5 15 4 16 -9 5 -14 -12 -15
-10 -10 13 5 18 3 27 -5 27 -6 0 -9 -4 -5 -9 3 -5 2 -12 -3 -15 -4 -2 -8 4 -9
13 -1 10 8 23 19 28 19 8 19 9 -7 21 -14 7 -24 8 -20 3 3 -5 1 -12 -5 -16 -5
-3 -10 3 -10 14 0 12 -6 21 -12 21 -9 0 -8 3 2 10 8 5 11 12 7 16 -4 4 1 13
11 21 15 13 15 13 -5 4 -12 -6 -24 -16 -26 -23 -3 -7 -3 1 0 18 5 34 -7 50
-25 32z m108 -202 c0 -3 -4 -8 -10 -11 -5 -3 -10 -1 -10 4 0 6 5 11 10 11 6 0
10 -2 10 -4z m145 -286 c-3 -5 -13 -6 -21 -3 -12 4 -13 8 -3 14 15 9 32 2 24
-11z m-181 -186 c3 -8 2 -12 -4 -9 -6 3 -10 10 -10 16 0 14 7 11 14 -7z"/>
<path d="M1450 960 c0 -5 5 -10 11 -10 5 0 7 5 4 10 -3 6 -8 10 -11 10 -2 0
-4 -4 -4 -10z"/>
<path d="M575 940 c-3 -5 -1 -10 4 -10 6 0 11 5 11 10 0 6 -2 10 -4 10 -3 0
-8 -4 -11 -10z"/>
<path d="M1797 869 c7 -7 15 -10 18 -7 3 3 -2 9 -12 12 -14 6 -15 5 -6 -5z"/>
<path d="M1700 859 c0 -5 5 -7 10 -4 6 3 10 8 10 11 0 2 -4 4 -10 4 -5 0 -10
-5 -10 -11z"/>
<path d="M1296 813 c-6 -14 -5 -15 5 -6 7 7 10 15 7 18 -3 3 -9 -2 -12 -12z"/>
<path d="M740 791 c0 -6 4 -13 10 -16 6 -3 7 1 4 9 -7 18 -14 21 -14 7z"/>
<path d="M1834 789 c-4 -7 -3 -9 4 -5 5 3 12 0 15 -6 2 -7 7 -10 11 -7 4 3 0
12 -8 18 -11 9 -16 9 -22 0z"/>
<path d="M804 685 c8 -8 18 -15 22 -15 3 0 1 7 -6 15 -7 8 -17 15 -22 15 -5 0
-3 -7 6 -15z"/>
<path d="M1165 620 c-3 -6 1 -7 9 -4 18 7 21 14 7 14 -6 0 -13 -4 -16 -10z"/>
<path d="M1913 585 c0 -8 4 -12 9 -9 5 3 6 10 3 15 -9 13 -12 11 -12 -6z"/>
<path d="M1830 539 c0 -5 5 -7 10 -4 6 3 10 8 10 11 0 2 -4 4 -10 4 -5 0 -10
-5 -10 -11z"/>
<path d="M1948 523 c7 -3 16 -2 19 1 4 3 -2 6 -13 5 -11 0 -14 -3 -6 -6z"/>
<path d="M793 495 c0 -8 4 -12 9 -9 5 3 6 10 3 15 -9 13 -12 11 -12 -6z"/>
<path d="M1196 483 c-6 -14 -5 -15 5 -6 7 7 10 15 7 18 -3 3 -9 -2 -12 -12z"/>
<path d="M1955 480 c3 -5 8 -10 11 -10 2 0 4 5 4 10 0 6 -5 10 -11 10 -5 0 -7
-4 -4 -10z"/>
<path d="M822 418 c2 -6 10 -13 16 -14 7 -1 8 0 2 3 -5 2 -8 9 -4 14 3 5 0 9
-6 9 -7 0 -10 -5 -8 -12z"/>
<path d="M1180 419 c0 -5 5 -7 10 -4 6 3 10 8 10 11 0 2 -4 4 -10 4 -5 0 -10
-5 -10 -11z"/>
<path d="M2030 385 c0 -8 4 -15 10 -15 5 0 7 7 4 15 -4 8 -8 15 -10 15 -2 0
-4 -7 -4 -15z"/>
<path d="M1865 340 c-3 -6 1 -7 9 -4 18 7 21 14 7 14 -6 0 -13 -4 -16 -10z"/>
<path d="M535 330 c-3 -5 -1 -10 4 -10 6 0 11 5 11 10 0 6 -2 10 -4 10 -3 0
-8 -4 -11 -10z"/>
<path d="M1610 336 c0 -2 7 -7 16 -10 8 -3 12 -2 9 4 -6 10 -25 14 -25 6z"/>
<path d="M1390 300 c6 -11 13 -20 16 -20 2 0 0 9 -6 20 -6 11 -13 20 -16 20
-2 0 0 -9 6 -20z"/>
<path d="M1765 240 c-3 -5 -19 -10 -34 -10 -15 0 -33 -6 -40 -12 -9 -8 -11 -8
-8 -2 9 15 -16 25 -33 14 -7 -5 -25 -4 -39 2 -14 5 -22 6 -18 2 13 -14 -14
-34 -33 -24 -11 6 -23 5 -37 -5 -11 -7 -28 -12 -39 -11 -10 2 -30 -4 -44 -12
l-25 -14 24 19 c18 15 21 22 11 28 -9 5 -11 4 -6 -3 4 -7 1 -12 -8 -12 -9 0
-15 3 -13 8 1 4 -2 7 -8 7 -5 0 -9 -10 -8 -22 1 -13 -2 -23 -8 -23 -6 0 -7 5
-4 10 3 6 2 10 -4 10 -5 0 -13 -4 -16 -10 -4 -6 -13 -5 -25 2 -10 7 -17 16
-14 20 3 4 -3 5 -12 1 -11 -4 -13 -8 -6 -11 7 -2 12 -11 12 -20 0 -10 -3 -13
-8 -7 -4 6 -15 16 -25 24 -15 12 -17 12 -11 -3 3 -9 11 -16 17 -16 6 0 7 -3 4
-6 -4 -4 -13 -1 -22 6 -11 9 -15 9 -15 1 0 -8 -4 -8 -14 1 -8 7 -12 17 -9 22
3 4 9 2 14 -5 6 -10 9 -10 9 -2 0 20 -17 24 -31 7 -10 -13 -10 -17 2 -25 8 -5
9 -9 4 -9 -6 0 -20 7 -32 15 -20 14 -22 14 -20 -5 1 -11 6 -20 11 -20 5 0 7
-2 4 -5 -8 -9 -38 6 -32 16 3 5 -2 6 -11 3 -14 -6 -14 -7 0 -18 14 -10 14 -13
0 -33 -10 -14 -22 -20 -31 -16 -14 5 -15 3 -4 -17 10 -18 9 -21 -1 -15 -9 6
-11 3 -6 -9 4 -11 3 -15 -4 -11 -6 4 -8 12 -6 19 3 7 -5 13 -16 14 -12 0 -17
-2 -11 -6 16 -11 26 -45 12 -39 -7 2 -12 10 -10 16 1 7 -2 10 -7 6 -6 -3 -7
-13 -4 -22 5 -12 3 -14 -8 -8 -12 8 -12 6 0 -8 12 -15 44 -17 317 -17 207 0
304 3 304 11 0 5 -5 7 -12 3 -7 -5 -8 -3 -4 5 5 7 14 10 20 8 7 -3 13 1 13 9
0 7 -4 11 -8 8 -4 -2 -11 0 -14 6 -4 6 -3 9 2 8 4 -2 18 7 31 20 20 20 21 26
10 40 -11 15 -11 16 2 7 8 -6 24 -10 35 -10 15 0 19 6 17 23 -2 12 2 22 9 22
8 0 8 5 -2 18 -12 14 -10 14 8 -2 22 -18 22 -18 17 9 -2 14 -1 24 4 21 4 -2 9
4 9 15 2 17 0 18 -14 4 -8 -9 -18 -13 -21 -10 -4 3 0 10 8 15 8 6 10 10 5 10
-6 0 -17 -6 -24 -12 -10 -11 -11 -10 -6 5 8 18 0 24 -10 7z m10 -110 c3 -6 -1
-7 -9 -4 -18 7 -21 14 -7 14 6 0 13 -4 16 -10z"/>
<path d="M2070 239 c0 -5 5 -7 10 -4 6 3 10 8 10 11 0 2 -4 4 -10 4 -5 0 -10
-5 -10 -11z"/>
<path d="M548 233 c6 -2 10 -8 8 -12 -3 -4 5 -8 17 -8 21 -2 22 -1 3 13 -11 8
-25 14 -30 13 -6 0 -5 -3 2 -6z"/>
<path d="M594 220 c0 -10 2 -17 5 -15 6 7 31 -16 31 -29 0 -6 -5 -3 -10 6 -6
10 -19 15 -30 13 -11 -2 -20 -1 -20 3 0 4 -13 9 -30 10 -27 2 -30 0 -30 -28 0
-16 5 -30 10 -30 6 0 10 -5 10 -11 0 -5 -5 -7 -12 -3 -6 4 -8 3 -5 -4 4 -5 17
-8 30 -4 19 5 20 3 9 -10 -10 -12 -9 -18 3 -28 18 -15 20 -35 3 -24 -7 4 -8 3
-4 -5 10 -15 29 -3 22 15 -3 8 -1 14 4 14 9 0 15 -22 11 -43 -1 -5 4 -5 11 -1
20 13 40 14 57 4 11 -7 12 -9 3 -10 -7 0 -10 -5 -7 -10 4 -6 11 -7 17 -4 7 4
8 2 4 -5 -5 -8 -15 -6 -35 8 -21 15 -28 17 -28 6 0 -8 3 -14 6 -13 19 2 31 -3
27 -10 -3 -5 69 -9 160 -10 100 -1 163 2 159 8 -3 5 -13 6 -23 3 -15 -6 -15
-5 -3 10 7 9 18 14 24 10 6 -3 7 -1 3 6 -6 9 -11 9 -23 -1 -14 -11 -15 -10 -9
12 6 20 5 22 -4 10 -9 -11 -13 -12 -17 -2 -2 6 -13 12 -24 12 -19 0 -26 14
-11 23 4 2 2 2 -5 1 -16 -4 -25 23 -10 30 7 3 2 3 -10 1 -12 -3 -25 0 -29 6
-4 7 -3 9 4 5 6 -3 14 -1 18 5 4 8 3 9 -4 5 -7 -4 -12 -2 -12 5 0 9 -3 9 -14
0 -12 -10 -18 -7 -30 16 -9 15 -15 20 -14 11 4 -26 -15 -24 -29 3 -12 23 -18
14 -13 -21 1 -8 -1 -12 -5 -8 -3 3 -8 14 -9 25 -4 20 -35 20 -49 0 -4 -7 -5 0
-3 15 4 25 3 27 -14 18 -15 -8 -23 -6 -37 9 -18 20 -19 20 -19 1z m-67 -52
c-3 -8 -6 -5 -6 6 -1 11 2 17 5 13 3 -3 4 -12 1 -19z m37 13 c3 -5 -2 -15 -12
-22 -15 -12 -16 -12 -5 2 7 9 10 19 6 22 -3 4 -4 7 0 7 3 0 8 -4 11 -9z m139
-6 c-3 -9 -8 -14 -10 -11 -3 3 -2 9 2 15 9 16 15 13 8 -4z m-123 -69 c0 -11
-19 -15 -25 -6 -3 5 1 10 9 10 9 0 16 -2 16 -4z m274 -12 c5 -14 4 -15 -9 -4
-17 14 -19 20 -6 20 5 0 12 -7 15 -16z m31 -34 c16 -7 14 -8 -12 -7 -17 1 -29
5 -26 10 5 9 12 8 38 -3z"/>
<path d="M1516 228 c3 -5 -6 -7 -20 -4 -16 3 -26 0 -26 -8 0 -18 36 -17 54 3
14 15 14 18 1 18 -8 0 -12 -4 -9 -9z"/>
<path d="M1550 235 c0 -2 6 -8 13 -14 10 -8 14 -7 14 2 0 8 -6 14 -14 14 -7 0
-13 -1 -13 -2z"/>
<path d="M1362 215 c-8 -10 -9 -15 -2 -15 6 0 8 -6 4 -12 -6 -10 -3 -9 8 0 9
8 14 20 11 28 -6 17 -5 17 -21 -1z"/>
<path d="M1147 126 c-11 -8 -14 -17 -8 -20 5 -4 15 3 21 14 13 23 11 24 -13 6z"/>
<path d="M3065 109 c-4 -6 -5 -12 -2 -15 2 -3 7 2 10 11 7 17 1 20 -8 4z"/>
<path d="M1746 94 c-8 -22 -4 -25 11 -9 7 8 9 16 4 19 -5 3 -12 -1 -15 -10z"/>
<path d="M1875 100 c3 -5 8 -10 11 -10 2 0 4 5 4 10 0 6 -5 10 -11 10 -5 0 -7
-4 -4 -10z"/>
<path d="M1716 65 c-3 -8 -1 -15 4 -15 6 0 10 7 10 15 0 8 -2 15 -4 15 -2 0
-6 -7 -10 -15z"/>
</g>
</svg>
